<svg xmlns="http://www.w3.org/2000/svg" viewBox="0 0 1800 1100"><defs><linearGradient id="sky" x1="0" x2="1" y1="0" y2="1"><stop offset="0" stop-color="#D9E7F5"/><stop offset=".52" stop-color="#8FAFC8"/><stop offset="1" stop-color="#0F3D63"/></linearGradient><linearGradient id="room" x1="0" x2="1" y1="0" y2="1"><stop offset="0" stop-color="#274866"/><stop offset="1" stop-color="#061426"/></linearGradient><filter id="softShadow"><feDropShadow dx="0" dy="18" stdDeviation="18" flood-color="#061426" flood-opacity=".35"/></filter></defs><rect width="1800" height="1100" fill="url(#room)"/><rect x="580" y="80" width="1040" height="520" rx="10" fill="url(#sky)" opacity=".85"/><g stroke="#FFFFFF" stroke-opacity=".38" stroke-width="4"><path d="M760 80 V600"/><path d="M940 80 V600"/><path d="M1120 80 V600"/><path d="M1300 80 V600"/><path d="M1480 80 V600"/><path d="M580 250 H1620"/><path d="M580 425 H1620"/></g><g fill="#0B1F3A" opacity=".62"><rect x="640" y="390" width="72" height="210"/><rect x="735" y="330" width="92" height="270"/><rect x="858" y="365" width="68" height="235"/><rect x="950" y="300" width="104" height="300"/><rect x="1090" y="352" width="86" height="248"/><rect x="1210" y="278" width="78" height="322"/><rect x="1328" y="380" width="120" height="220"/><rect x="1490" y="340" width="72" height="260"/></g><g stroke="#0A76D9" stroke-width="10" stroke-linecap="round" opacity=".58"><path d="M1000 580 C1120 520 1260 520 1430 578"/><path d="M1125 548 V492"/><path d="M1265 536 V474"/><path d="M1390 560 V502"/></g><rect x="1090" y="170" width="360" height="220" rx="8" fill="#0B1F3A" opacity=".86"/><g fill="none" stroke="#0A76D9" stroke-width="7" stroke-linecap="round"><path d="M1135 330 L1190 282 L1242 302 L1308 238 L1390 260"/><path d="M1138 205 H1402"/></g><path d="M460 704 C720 620 1235 620 1530 704 L1690 1020 C1260 1110 665 1110 260 1020 Z" fill="#132A44" filter="url(#softShadow)"/><g><circle cx="690" cy="590" r="48" fill="#5B382B"/><path d="M610 760 C620 660 760 660 780 760 Z" fill="#14283F"/></g><g><circle cx="940" cy="560" r="52" fill="#6B4434"/><path d="M850 760 C870 638 1015 638 1042 760 Z" fill="#0F3D63"/></g><g><circle cx="1200" cy="594" r="47" fill="#4C2F27"/><path d="M1122 760 C1140 662 1280 662 1300 760 Z" fill="#1D334D"/></g><g fill="#F7F8FA" opacity=".9"><rect x="760" y="780" width="210" height="120" rx="6" transform="rotate(-5 760 780)"/><rect x="1000" y="778" width="230" height="128" rx="6" transform="rotate(4 1000 778)"/></g><g stroke="#0B1F3A" stroke-width="4" opacity=".36"><path d="M790 818 H930"/><path d="M790 846 H910"/><path d="M1030 820 H1190"/><path d="M1030 850 H1160"/></g><ellipse cx="1350" cy="840" rx="64" ry="22" fill="#C7A869" opacity=".9"/><path d="M1305 835 C1320 795 1385 795 1398 835" fill="none" stroke="#A9C46B" stroke-width="8"/><rect width="760" height="1100" fill="#061426" opacity=".58"/></svg>